<?xml version="1.0" encoding="UTF-8"?>
<svg width="25px" height="25px" viewBox="0 0 25 25" version="1.1" xmlns="http://www.w3.org/2000/svg" xmlns:xlink="http://www.w3.org/1999/xlink">
    <!-- Generator: Sketch 52.6 (67491) - http://www.bohemiancoding.com/sketch -->
    <title>card sorting</title>
    <desc>Created with Sketch.</desc>
    <g id="card-sorting" stroke="none" stroke-width="1" fill="none" fill-rule="evenodd">
        <g id="Group-6" transform="translate(3.000000, 5.000000)" fill="#000000">
            <path d="M1,14 L18,14 L18,5 L1,5 L1,14 Z M18.5,15 L0.5,15 C0.224,15 0,14.776 0,14.5 L0,4.5 C0,4.224 0.224,4 0.5,4 L18.5,4 C18.776,4 19,4.224 19,4.5 L19,14.5 C19,14.776 18.776,15 18.5,15 Z" id="Fill-1"></path>
            <path d="M17.5,3 L1.5,3 C1.224,3 1,2.776 1,2.5 C1,2.224 1.224,2 1.5,2 L17.5,2 C17.776,2 18,2.224 18,2.5 C18,2.776 17.776,3 17.5,3" id="Fill-4"></path>
            <path d="M16.5,1 L2.5,1 C2.224,1 2,0.776 2,0.5 C2,0.224 2.224,0 2.5,0 L16.5,0 C16.776,0 17,0.224 17,0.5 C17,0.776 16.776,1 16.5,1" id="Fill-5"></path>
        </g>
    </g>
</svg>