<?xml version="1.0" encoding="UTF-8"?>
<svg width="25px" height="25px" viewBox="0 0 25 25" version="1.1" xmlns="http://www.w3.org/2000/svg" xmlns:xlink="http://www.w3.org/1999/xlink">
    <!-- Generator: Sketch 52.6 (67491) - http://www.bohemiancoding.com/sketch -->
    <title>diary study</title>
    <desc>Created with Sketch.</desc>
    <g id="diary-study" stroke="none" stroke-width="1" fill="none" fill-rule="evenodd">
        <g id="0210-register" transform="translate(3.000000, 3.000000)" fill="#000000">
            <path d="M14.5,19 L1.5,19 C0.673,19 0,18.327 0,17.5 L0,1.5 C0,0.673 0.673,0 1.5,0 L14.5,0 C15.327,0 16,0.673 16,1.5 L16,3.5 C16,3.776 15.776,4 15.5,4 C15.224,4 15,3.776 15,3.5 L15,1.5 C15,1.224 14.776,1 14.5,1 L1.5,1 C1.224,1 1,1.224 1,1.5 L1,17.5 C1,17.776 1.224,18 1.5,18 L14.5,18 C14.776,18 15,17.776 15,17.5 L15,13.5 C15,13.224 15.224,13 15.5,13 C15.776,13 16,13.224 16,13.5 L16,17.5 C16,18.327 15.327,19 14.5,19 Z" id="Path"></path>
            <path d="M10.5,4 L3.5,4 C3.224,4 3,3.776 3,3.5 C3,3.224 3.224,3 3.5,3 L10.5,3 C10.776,3 11,3.224 11,3.5 C11,3.776 10.776,4 10.5,4 Z" id="Path"></path>
            <path d="M12.5,6 L3.5,6 C3.224,6 3,5.776 3,5.5 C3,5.224 3.224,5 3.5,5 L12.5,5 C12.776,5 13,5.224 13,5.5 C13,5.776 12.776,6 12.5,6 Z" id="Path"></path>
            <path d="M11.5,8 L3.5,8 C3.224,8 3,7.776 3,7.5 C3,7.224 3.224,7 3.5,7 L11.5,7 C11.776,7 12,7.224 12,7.5 C12,7.776 11.776,8 11.5,8 Z" id="Path"></path>
            <path d="M8.5,10 L3.5,10 C3.224,10 3,9.776 3,9.5 C3,9.224 3.224,9 3.5,9 L8.5,9 C8.776,9 9,9.224 9,9.5 C9,9.776 8.776,10 8.5,10 Z" id="Path"></path>
            <path d="M8.5,16 C8.366,16 8.235,15.946 8.14,15.847 C8.016,15.719 7.97,15.534 8.019,15.363 L9.019,11.863 C9.042,11.781 9.086,11.707 9.146,11.647 L16.646,4.147 C16.841,3.952 17.158,3.952 17.353,4.147 L19.853,6.647 C20.047,6.841 20.048,7.155 19.856,7.351 L12.356,14.992 C12.291,15.058 12.209,15.105 12.118,15.127 L8.618,15.986 C8.579,15.996 8.539,16 8.499,16 L8.5,16 Z M9.945,12.262 L9.217,14.809 L11.742,14.189 L18.795,7.003 L16.999,5.207 L9.944,12.262 L9.945,12.262 Z" id="Shape" fill-rule="nonzero"></path>
            <path d="M6.5,16 L3.5,16 C3.224,16 3,15.776 3,15.5 C3,15.224 3.224,15 3.5,15 L6.5,15 C6.776,15 7,15.224 7,15.5 C7,15.776 6.776,16 6.5,16 Z" id="Path"></path>
        </g>
    </g>
</svg>