<?xml version="1.0" encoding="UTF-8"?>
<svg width="25px" height="25px" viewBox="0 0 25 25" version="1.1" xmlns="http://www.w3.org/2000/svg" xmlns:xlink="http://www.w3.org/1999/xlink">
    <!-- Generator: Sketch 52.6 (67491) - http://www.bohemiancoding.com/sketch -->
    <title>five second</title>
    <desc>Created with Sketch.</desc>
    <g id="five-second" stroke="none" stroke-width="1" fill="none" fill-rule="evenodd">
        <g id="0720-hourglass" transform="translate(6.000000, 3.000000)" fill="#000000" fill-rule="nonzero">
            <path d="M13,2.5 L13,2 C13,1.608 12.759,1.267 12.283,0.986 C11.939,0.783 11.462,0.604 10.864,0.455 C9.692,0.162 8.142,0.001 6.5,0.001 C4.858,0.001 3.308,0.162 2.136,0.455 C1.538,0.604 1.061,0.783 0.717,0.986 C0.241,1.267 0,1.608 0,2 L0,2.5 C0,5.131 1.593,7.499 4,8.502 L4,10.499 C1.593,11.502 0,13.87 0,16.501 L0,17.001 C0,17.393 0.241,17.734 0.717,18.015 C1.061,18.218 1.538,18.397 2.136,18.546 C3.308,18.839 4.858,19 6.5,19 C8.142,19 9.692,18.839 10.864,18.546 C11.462,18.397 11.939,18.218 12.283,18.015 C12.759,17.734 13,17.392 13,17.001 L13,16.501 C13,13.87 11.407,11.502 9,10.499 L9,8.502 C11.407,7.499 13,5.131 13,2.5 Z M2.612,1.369 C3.678,1.131 5.059,1 6.5,1 C7.941,1 9.323,1.131 10.388,1.369 C11.538,1.626 11.886,1.903 11.977,2 C11.886,2.097 11.538,2.374 10.388,2.631 C9.322,2.869 7.941,3 6.5,3 C5.059,3 3.677,2.869 2.612,2.631 C1.462,2.374 1.114,2.097 1.023,2 C1.114,1.903 1.462,1.626 2.612,1.369 Z M8.333,11.313 C10.526,12.088 12,14.173 12,16.5 L12,16.973 C11.958,17.03 11.676,17.343 10.388,17.63 C9.322,17.868 7.941,17.999 6.5,17.999 C5.059,17.999 3.677,17.868 2.612,17.63 C1.325,17.342 1.042,17.03 1,16.973 L1,16.5 C1,14.173 2.473,12.088 4.667,11.313 C4.867,11.242 5,11.054 5,10.842 L5,8.159 C5,7.947 4.866,7.758 4.667,7.688 C2.691,6.989 1.299,5.227 1.043,3.182 C1.343,3.317 1.709,3.439 2.136,3.546 C3.308,3.839 4.858,4 6.5,4 C8.142,4 9.692,3.839 10.864,3.546 C11.292,3.439 11.658,3.317 11.957,3.182 C11.701,5.227 10.31,6.989 8.333,7.688 C8.133,7.759 8,7.948 8,8.159 L8,10.842 C8,11.054 8.134,11.243 8.333,11.313 Z" id="Shape"></path>
            <path d="M10.667,15.529 C8.405,14.73 7,12.803 7,10.5 L7,7.475 C7.6,7.416 8.178,7.25 8.723,6.98 C8.97,6.857 9.071,6.557 8.948,6.31 C8.825,6.063 8.525,5.962 8.278,6.085 C7.723,6.361 7.125,6.501 6.5,6.501 C5.875,6.501 5.277,6.361 4.722,6.085 C4.475,5.962 4.175,6.063 4.052,6.31 C3.929,6.557 4.03,6.857 4.277,6.98 C4.822,7.251 5.399,7.416 6,7.475 L6,10.5 C6,12.802 4.595,14.729 2.333,15.529 C2.123,15.603 1.987,15.808 2.001,16.03 C2.015,16.252 2.173,16.439 2.391,16.488 C3.373,16.708 4.868,17 6.5,17 C8.132,17 9.627,16.708 10.609,16.488 C10.827,16.439 10.986,16.252 10.999,16.03 C11.012,15.808 10.877,15.603 10.667,15.529 Z M6.5,16 C5.623,16 4.799,15.913 4.063,15.795 C4.728,15.374 5.307,14.843 5.774,14.22 C6.067,13.829 6.31,13.408 6.5,12.966 C6.69,13.408 6.933,13.829 7.226,14.22 C7.692,14.842 8.271,15.373 8.937,15.795 C8.201,15.912 7.377,16 6.5,16 Z" id="Shape"></path>
        </g>
    </g>
</svg>