<?xml version="1.0" encoding="UTF-8"?>
<svg width="25px" height="25px" viewBox="0 0 25 25" version="1.1" xmlns="http://www.w3.org/2000/svg" xmlns:xlink="http://www.w3.org/1999/xlink">
    <!-- Generator: Sketch 52.6 (67491) - http://www.bohemiancoding.com/sketch -->
    <title>focus group</title>
    <desc>Created with Sketch.</desc>
    <g id="focus-group" stroke="none" stroke-width="1" fill="none" fill-rule="evenodd">
        <path d="M21.501,20.999 L8.501,20.999 C8.226,20.999 8.003,20.776 8.001,20.502 C8.002,20.447 8.038,19.623 8.856,18.786 C9.653,17.971 11.366,16.999 15.001,16.999 C18.636,16.999 20.349,17.971 21.146,18.786 C21.964,19.623 21.999,20.447 22.001,20.502 C21.999,20.776 21.776,20.999 21.501,20.999 Z M6.501,18.999 C6.226,18.999 6.003,18.776 6.001,18.502 C6.003,18.446 6.039,17.622 6.856,16.786 C7.653,15.971 9.366,14.999 13.001,14.999 C16.036,14.999 17.754,15.667 18.726,16.416 C17.659,16.139 16.411,15.999 15.001,15.999 C13.233,15.999 11.718,16.219 10.498,16.653 C9.489,17.012 8.674,17.518 8.074,18.157 C7.807,18.442 7.607,18.729 7.456,18.999 L6.501,18.999 Z M4.501,16.999 C4.226,16.999 4.003,16.776 4.001,16.502 C4.002,16.447 4.038,15.623 4.856,14.786 C5.653,13.971 7.366,12.999 11.001,12.999 C11.184,12.999 11.365,13.002 11.543,13.007 C11.763,13.385 12.043,13.723 12.37,14.009 C10.871,14.056 9.571,14.272 8.498,14.653 C7.489,15.012 6.674,15.518 6.074,16.157 C5.807,16.442 5.607,16.729 5.456,16.999 L4.501,16.999 Z M10.001,8.999 C10.001,7.345 11.347,5.999 13.001,5.999 C13.866,5.999 14.679,6.381 15.24,7.006 C15.161,7.001 15.081,6.999 15.001,6.999 C12.795,6.999 11.001,8.793 11.001,10.999 C11.001,11.079 11.004,11.159 11.008,11.238 C10.382,10.677 10.001,9.864 10.001,8.999 Z M8.001,6.999 C8.001,5.345 9.347,3.999 11.001,3.999 C11.867,3.999 12.68,4.381 13.241,5.007 C13.161,5.002 13.082,4.999 13.001,4.999 C10.795,4.999 9.001,6.793 9.001,8.999 C9.001,9.079 9.004,9.159 9.009,9.239 C8.383,8.678 8.001,7.865 8.001,6.999 Z M18.001,10.999 C18.001,12.653 16.655,13.999 15.001,13.999 C13.347,13.999 12.001,12.653 12.001,10.999 C12.001,9.345 13.347,7.999 15.001,7.999 C16.655,7.999 18.001,9.345 18.001,10.999 Z M21.928,18.157 C21.571,17.776 21.137,17.444 20.632,17.16 C20.329,16.556 19.734,15.761 18.574,15.127 C18.099,14.867 17.562,14.652 16.967,14.481 C18.18,13.793 19.001,12.49 19.001,10.999 C19.001,9.38 18.034,7.982 16.647,7.354 C16.35,6.696 15.884,6.133 15.287,5.717 C15.084,5.575 14.869,5.454 14.647,5.353 C14.35,4.696 13.884,4.133 13.287,3.717 C12.614,3.248 11.824,3 11.001,3 C8.795,3 7.001,4.794 7.001,7 C7.001,7.823 7.249,8.613 7.718,9.286 C8.134,9.883 8.697,10.349 9.354,10.646 C9.455,10.869 9.576,11.083 9.718,11.286 C9.906,11.555 10.124,11.797 10.366,12.01 C8.868,12.057 7.569,12.273 6.497,12.654 C5.488,13.013 4.673,13.519 4.073,14.158 C3.012,15.289 3,16.451 3,16.5 C3,17.327 3.673,18 4.5,18 L5.068,18 C5.002,18.291 5,18.481 5,18.5 C5,19.327 5.673,20 6.5,20 L7.068,20 C7.002,20.291 7,20.481 7,20.5 C7,21.327 7.673,22 8.5,22 L21.5,22 C22.327,22 23,21.327 23,20.5 C23,20.451 22.988,19.289 21.927,18.158 L21.928,18.157 Z" id="Fill-1" fill="#000000"></path>
    </g>
</svg>