<?xml version="1.0" encoding="UTF-8"?>
<svg width="25px" height="25px" viewBox="0 0 25 25" version="1.1" xmlns="http://www.w3.org/2000/svg" xmlns:xlink="http://www.w3.org/1999/xlink">
    <!-- Generator: Sketch 52.6 (67491) - http://www.bohemiancoding.com/sketch -->
    <title>heatmap</title>
    <desc>Created with Sketch.</desc>
    <g id="heatmap" stroke="none" stroke-width="1" fill="none" fill-rule="evenodd">
        <g id="0057-fire" transform="translate(4.000000, 2.000000)" fill="#000000" fill-rule="nonzero">
            <path d="M14.127,1.606 C14.042,1.428 13.967,1.293 13.905,1.207 C13.751,0.993 13.456,0.936 13.233,1.076 C13.01,1.216 12.934,1.507 13.061,1.739 C13.12,1.847 13.178,1.954 13.235,2.059 C13.677,2.998 14.436,5.23 14.478,7.61 C14.017,6.61 13.308,5.741 12.663,4.948 C11.681,3.743 10.834,2.703 10.995,1.57 C11.016,1.427 10.973,1.281 10.878,1.172 C10.783,1.063 10.645,1 10.5,1 C10.5,1 10.5,1 10.5,1 C9.482,1 8.401,1.797 7.673,2.466 C6.745,3.318 5.858,4.44 5.174,5.625 C5.075,5.797 4.981,5.968 4.893,6.139 C5.125,4.524 5.578,2.845 5.966,1.68 C6.024,1.505 6.004,1.346 5.904,1.208 C5.81,1.078 5.659,1 5.498,1 C5.313,1 5.145,1.102 5.058,1.263 C2.05,6.777 0.998,9.058 0.998,13 C0.998,15.149 1.805,17.139 3.269,18.604 C4.024,19.359 4.927,19.949 5.954,20.356 C7.032,20.784 8.224,21.001 9.498,21.001 C10.772,21.001 11.964,20.784 13.042,20.356 C14.068,19.949 14.972,19.359 15.727,18.604 C17.192,17.139 17.998,15.149 17.998,13 C17.998,9.098 16.936,6.774 14.125,1.606 L14.127,1.606 Z M6.041,6.125 C6.666,5.041 7.508,3.976 8.35,3.202 C8.943,2.657 9.512,2.278 9.984,2.105 C10.085,3.369 10.965,4.448 11.888,5.58 C13.524,7.588 15.07,9.485 12.961,12.691 C12.51,13.249 11.96,13.73 11.312,14.133 C11.943,12.983 12.156,11.636 11.873,10.303 C11.661,9.302 11.179,8.383 10.481,7.646 C9.734,6.859 8.746,6.294 7.623,6.013 C7.387,5.954 7.143,6.073 7.044,6.296 C6.945,6.519 7.022,6.779 7.224,6.914 C7.872,7.346 8.189,8.825 7.864,9.9 C7.641,10.636 7.2,11.01 6.552,11.01 C6.437,11.01 6.314,10.998 6.185,10.975 C5.745,10.894 5.416,10.662 5.181,10.265 C5.15,10.212 5.121,10.157 5.093,10.1 L5.098,10.1 C4.738,9.252 5.082,7.786 6.042,6.123 L6.041,6.125 Z M9.5,20 C4.576,20 2,16.479 2,13 C2,10.254 2.523,8.403 3.99,5.434 C3.566,7.892 3.677,9.689 4.32,10.776 C4.706,11.428 5.272,11.827 6.004,11.96 C6.191,11.994 6.375,12.012 6.55,12.012 C7.642,12.012 8.469,11.348 8.819,10.192 C9.028,9.501 9.048,8.666 8.872,7.901 C8.845,7.783 8.814,7.669 8.779,7.559 C9.867,8.211 10.626,9.249 10.893,10.512 C11.259,12.241 10.608,14.001 9.192,15.106 C9.001,15.255 8.944,15.519 9.058,15.734 C9.172,15.949 9.421,16.051 9.652,15.977 C12.13,15.185 13.845,13.728 14.75,11.645 C15.417,10.108 15.629,8.279 15.38,6.202 C16.548,8.703 17,10.488 17,13.001 C17,16.48 14.424,20.001 9.5,20.001 L9.5,20 Z" id="Shape"></path>
        </g>
    </g>
</svg>