<?xml version="1.0" encoding="UTF-8"?>
<svg width="10px" height="10px" viewBox="0 0 10 10" version="1.1" xmlns="http://www.w3.org/2000/svg" xmlns:xlink="http://www.w3.org/1999/xlink">
    <!-- Generator: Sketch 52.5 (67469) - http://www.bohemiancoding.com/sketch -->
    <title>insurance</title>
    <desc>Created with Sketch.</desc>
    <g id="Symbols" stroke="none" stroke-width="1" fill="none" fill-rule="evenodd">
        <g id="question" transform="translate(-43.000000, -1.000000)" fill="#313233">
            <g transform="translate(0.000000, -1.000000)" id="insurance">
                <path d="M46.14825,5.7616385 L45.5843814,6.30887055 C45.543244,6.34865251 45.5427079,6.4119059 45.5821662,6.45116859 L47.4024076,8.24205186 C47.4139822,8.25331494 47.4276747,8.26134279 47.4422778,8.26612848 L47.7009529,8.52632096 C47.7412607,8.56679115 47.8066109,8.56749152 47.8479128,8.52892054 L50.9948492,5.53519068 C51.0349037,5.49636417 51.0345252,5.4329199 50.9946273,5.39291321 L50.4414443,4.83621399 C50.4013753,4.7957438 50.3375034,4.79504343 50.297723,4.83361441 L47.7854641,7.23299986 L46.2927796,5.76152326 C46.2534313,5.72237103 46.1886278,5.72231216 46.14825,5.7616385 Z M53,12 C52.9967011,11.9996069 43,12 43,12 L43,2 L52.9924757,2 L53,12 Z"></path>
            </g>
        </g>
    </g>
</svg>