<?xml version="1.0" encoding="UTF-8"?>
<svg width="25px" height="25px" viewBox="0 0 25 25" version="1.1" xmlns="http://www.w3.org/2000/svg" xmlns:xlink="http://www.w3.org/1999/xlink">
    <!-- Generator: Sketch 52.6 (67491) - http://www.bohemiancoding.com/sketch -->
    <title>interview</title>
    <desc>Created with Sketch.</desc>
    <g id="interview" stroke="none" stroke-width="1" fill="none" fill-rule="evenodd">
        <g id="Group-5" transform="translate(3.000000, 4.000000)" fill="#000000">
            <path d="M16.3529,13.7529 C16.4609,13.7529 16.5679,13.7879 16.6559,13.8549 C16.6649,13.8609 17.3309,14.3579 18.1589,14.6959 C17.6149,13.9009 17.6279,13.4479 17.6769,13.2579 C17.7069,13.1489 17.7699,13.0529 17.8609,12.9849 C18.5949,12.4329 18.9989,11.7299 18.9989,11.0009 C18.9989,10.2339 18.5549,9.5009 17.7489,8.9359 C16.8869,8.3329 15.7339,8.0009 14.4989,8.0009 C13.2649,8.0009 12.1119,8.3329 11.2499,8.9359 C10.4439,9.5009 9.9989,10.2339 9.9989,11.0009 C9.9989,11.7679 10.4439,12.5009 11.2499,13.0659 C12.1119,13.6689 13.2649,14.0009 14.4989,14.0009 C15.0939,14.0009 15.6719,13.9239 16.2169,13.7709 C16.2609,13.7589 16.3069,13.7529 16.3519,13.7529 L16.3529,13.7529 Z M19.5009,16.0009 L19.4999,16.0009 C18.1599,16.0009 16.7659,15.1449 16.2529,14.7949 C15.6909,14.9309 15.1019,15.0009 14.4999,15.0009 C13.0639,15.0009 11.7059,14.6049 10.6779,13.8849 C9.5959,13.1279 8.9999,12.1029 8.9999,11.0009 C8.9999,9.8989 9.5959,8.8739 10.6779,8.1169 C11.7069,7.3979 13.0639,7.0009 14.4999,7.0009 C15.9369,7.0009 17.2949,7.3979 18.3229,8.1169 C19.4049,8.8739 19.9999,9.8989 19.9999,11.0009 C19.9999,11.9649 19.5399,12.8779 18.6949,13.5979 C18.7769,13.8289 19.0339,14.3249 19.8389,15.1329 C19.9389,15.2239 19.9999,15.3549 19.9999,15.5009 C19.9999,15.7769 19.7769,16.0009 19.4999,16.0009 L19.5009,16.0009 Z" id="Fill-1"></path>
            <path d="M0.5004,17.001 C0.2754,17.001 0.0784,16.851 0.0184,16.634 C-0.0416,16.417 0.0504,16.187 0.2434,16.072 C1.9344,15.058 2.6354,13.583 2.8844,12.893 C1.0464,11.486 0.0004,9.539 0.0004,7.501 C0.0004,6.472 0.2584,5.475 0.7684,4.537 C1.2544,3.643 1.9484,2.842 2.8294,2.156 C4.6164,0.766 6.9854,0 9.5004,0 C11.7784,0 13.9814,0.644 15.7024,1.813 C17.4374,2.993 18.5734,4.625 18.9014,6.409 C18.9514,6.681 18.7714,6.941 18.5004,6.991 C18.2294,7.041 17.9684,6.861 17.9184,6.59 C17.6394,5.071 16.6524,3.669 15.1404,2.641 C13.5834,1.583 11.5804,1 9.5004,1 C4.8134,1 1.0004,3.916 1.0004,7.5 C1.0004,9.315 2.0054,11.062 3.7564,12.292 C3.9284,12.413 4.0064,12.628 3.9524,12.831 C3.8354,13.267 3.4374,14.464 2.3724,15.619 C3.6744,15.163 5.0764,14.372 6.1114,13.66 C6.2344,13.575 6.3884,13.55 6.5324,13.591 C7.4804,13.862 8.4794,14 9.5004,14 C9.7764,14 10.0004,14.224 10.0004,14.5 C10.0004,14.776 9.7764,15 9.5004,15 C8.4674,15 7.4534,14.871 6.4844,14.615 C6.0554,14.901 5.2534,15.408 4.2954,15.885 C2.8074,16.625 1.5314,17 0.5014,17 L0.5004,17.001 Z" id="Fill-3"></path>
        </g>
    </g>
</svg>