<?xml version="1.0" encoding="UTF-8"?>
<svg width="25px" height="25px" viewBox="0 0 25 25" version="1.1" xmlns="http://www.w3.org/2000/svg" xmlns:xlink="http://www.w3.org/1999/xlink">
    <!-- Generator: Sketch 52.6 (67491) - http://www.bohemiancoding.com/sketch -->
    <title>kano analysis</title>
    <desc>Created with Sketch.</desc>
    <defs>
        <polygon id="path-1" points="-0.00015 0 7.999 0 7.999 7.999 -0.00015 7.999"></polygon>
        <polygon id="path-3" points="0.0001 0.001 7.99935 0.001 7.99935 8 0.0001 8"></polygon>
        <polygon id="path-5" points="0.99885 0.0005 8.999 0.0005 8.999 8 0.99885 8"></polygon>
    </defs>
    <g id="kano-analysis" stroke="none" stroke-width="1" fill="none" fill-rule="evenodd">
        <g id="Group-7" transform="translate(8.000000, 5.000000)" fill="#000000">
            <path d="M11.5351561,0.0184470578 L10.340126,1.15983141 L7.3084341,4.1915233 C7.15808477,4.34257849 6.87644447,4.36234272 6.70562505,4.23528695 L5.01154809,2.96472923 C4.57108808,2.63367836 3.8913397,2.64779567 3.464997,2.99719904 L0.129077123,5.72678054 C-0.021978072,5.85030698 -0.0438598994,6.07194872 0.0796665454,6.22370978 C0.14954722,6.30911949 0.250485972,6.35288315 0.352836455,6.35288315 C0.431187514,6.35288315 0.510244439,6.32606026 0.575889921,6.27241449 L3.9118098,3.54353886 C4.08545268,3.40095405 4.40803317,3.3938954 4.58732298,3.52942155 L6.28139994,4.7992734 C6.73527139,5.14020639 7.40513766,5.09220755 7.80677507,4.69057013 L10.838467,1.65887824 L11.9805572,0.46455399 C12.0229091,0.336792353 11.9897334,0.197736869 11.8951475,0.10244504 C11.8019732,0.0085649422 11.6622119,-0.0246107315 11.5351561,0.0184470578 Z" id="Fill-6"></path>
        </g>
        <g id="Group-12" transform="translate(13.000000, 13.000000) rotate(45.000000) translate(-13.000000, -13.000000) translate(5.000000, 5.000000)">
            <path d="M1.82842034,1.12182034 L3.62142034,1.12182034 C3.89742034,1.12182034 4.12142034,0.897820344 4.12142034,0.621820344 C4.12142034,0.344820344 3.89742034,0.121820344 3.62142034,0.121820344 L0.621420344,0.121820344 C0.345420344,0.121820344 0.121420344,0.344820344 0.121420344,0.621820344 L0.121420344,3.62182034 C0.121420344,3.89782034 0.345420344,4.12182034 0.621420344,4.12182034 C0.897420344,4.12182034 1.12142034,3.89782034 1.12142034,3.62182034 L1.12142034,1.82882034 L3.37537504,4.08277504 C3.47337504,4.18077504 3.60593348,4.23333348 3.73393348,4.23333348 C3.86193348,4.23333348 3.98492843,4.17932843 4.08292843,4.08232843 C4.27792843,3.88732843 4.49349697,3.78489697 4.08287504,3.37527504 L1.82842034,1.12182034 Z" id="Fill-1" fill="#000000"></path>
            <path d="M5.87837288,5.17177288 C5.60237288,5.17177288 5.17137288,5.60177292 5.17137288,5.87877295 L7.47112541,8.17852564 C7.56912541,8.27652565 7.69712541,8.32452566 7.82512541,8.32452566 C7.95312541,8.32452566 8.08112541,8.27552565 8.17912541,8.17852564 C8.37412541,7.98352562 8.37412541,7.66552559 8.17912541,7.47152557 L5.87837288,5.17177288 Z" id="Fill-1" fill="#000000"></path>
            <g id="Group-5" transform="translate(7.878680, 0.121320)">
                <mask id="mask-2" fill="white">
                    <use xlink:href="#path-1"></use>
                </mask>
                <g id="Clip-4"></g>
                <path d="M4.4991,0 C4.2231,0 3.9991,0.224 3.9991,0.5 C3.9991,0.776 4.2231,1 4.4991,1 L6.2921,1 L0.1461,7.146 C-0.0489,7.341 -0.0489,7.658 0.1461,7.854 C0.2441,7.951 0.3721,7.999 0.4991,7.999 C0.6261,7.999 0.7551,7.95 0.8521,7.854 L6.9991,1.707 L6.9991,3.5 C6.9991,3.776 7.2231,4 7.4991,4 C7.7751,4 7.9991,3.776 7.9991,3.5 L7.9991,0.5 C7.9991,0.224 7.7751,0 7.4991,0 L4.4991,0 Z" id="Fill-3" fill="#000000" mask="url(#mask-2)"></path>
            </g>
            <g id="Group-8" transform="translate(0.121320, 7.878680)">
                <mask id="mask-4" fill="white">
                    <use xlink:href="#path-3"></use>
                </mask>
                <g id="Clip-7"></g>
                <path d="M7.1461,0.1465 L1.0001,6.2925 L1.0001,4.5005 C1.0001,4.2235 0.7761,4.0005 0.5001,4.0005 C0.2241,4.0005 0.0001,4.2235 0.0001,4.5005 L0.0001,7.5005 C0.0001,7.7765 0.2241,8.0005 0.5001,8.0005 L3.5001,8.0005 C3.7761,8.0005 4.0001,7.7765 4.0001,7.5005 C4.0001,7.2235 3.7761,7.0005 3.5001,7.0005 L1.7071,7.0005 L7.8531,0.8535 C8.0481,0.6585 8.0481,0.3405 7.8531,0.1465 C7.6581,-0.0475 7.3411,-0.0475 7.1461,0.1465 Z" id="Fill-6" fill="#000000" mask="url(#mask-4)"></path>
            </g>
            <g id="Group-11" transform="translate(6.878680, 7.878680)">
                <mask id="mask-6" fill="white">
                    <use xlink:href="#path-5"></use>
                </mask>
                <g id="Clip-10"></g>
                <path d="M7.9991,4.5 L7.9991,6.293 L1.8521,0.146 C1.6571,-0.048 1.3401,-0.048 1.1451,0.146 C0.9501,0.342 0.9501,0.659 1.1451,0.854 L7.2921,7 L5.4991,7 C5.2231,7 4.9991,7.224 4.9991,7.5 C4.9991,7.776 5.2231,8 5.4991,8 L8.4991,8 C8.7751,8 8.9991,7.776 8.9991,7.5 L8.9991,4.5 C8.9991,4.224 8.7751,4 8.4991,4 C8.2231,4 7.9991,4.224 7.9991,4.5 Z" id="Fill-9" fill="#000000" mask="url(#mask-6)"></path>
            </g>
        </g>
    </g>
</svg>