<?xml version="1.0" encoding="UTF-8"?>
<svg width="25px" height="25px" viewBox="0 0 25 25" version="1.1" xmlns="http://www.w3.org/2000/svg" xmlns:xlink="http://www.w3.org/1999/xlink">
    <!-- Generator: Sketch 52.6 (67491) - http://www.bohemiancoding.com/sketch -->
    <title>observation</title>
    <desc>Created with Sketch.</desc>
    <defs>
        <polygon id="path-1" points="0.0001 0 19 0 19 20 0.0001 20"></polygon>
        <polygon id="path-3" points="0.00035 0.0004 20 0.0004 20 10.999 0.00035 10.999"></polygon>
    </defs>
    <g id="observation" stroke="none" stroke-width="1" fill="none" fill-rule="evenodd">
        <g id="Group" transform="translate(3.000000, 3.000000)">
            <g id="Group-3" transform="translate(1.000000, 0.000000)">
                <mask id="mask-2" fill="white">
                    <use xlink:href="#path-1"></use>
                </mask>
                <g id="Clip-2"></g>
            </g>
            <g id="Group-3" transform="translate(0.000000, 4.000000)">
                <mask id="mask-4" fill="white">
                    <use xlink:href="#path-3"></use>
                </mask>
                <g id="Clip-2"></g>
                <path d="M16.3176,7.6054 C14.7846,8.6974 12.4446,9.9994 10.0006,9.9994 C7.5556,9.9994 5.2156,8.6974 3.6826,7.6054 C2.5266,6.7814 1.6406,5.9474 1.1946,5.4994 C1.6406,5.0504 2.5266,4.2174 3.6826,3.3924 C4.2136,3.0144 4.8386,2.6134 5.5336,2.2484 C5.1856,2.9354 5.0006,3.7034 5.0006,4.4994 C5.0006,7.2554 7.2436,9.4994 10.0006,9.4994 C12.7566,9.4994 15.0006,7.2554 15.0006,4.4994 C15.0006,3.7034 14.8146,2.9354 14.4666,2.2484 C15.1616,2.6134 15.7876,3.0154 16.3176,3.3924 C17.4736,4.2164 18.3596,5.0504 18.8056,5.4994 C18.3596,5.9474 17.4736,6.7804 16.3176,7.6054 M12.5746,1.4374 C13.4816,2.2004 14.0006,3.3094 14.0006,4.4994 C14.0006,6.7054 12.2066,8.4994 10.0006,8.4994 C7.7946,8.4994 6.0006,6.7054 6.0006,4.4994 C6.0006,3.3104 6.5186,2.2004 7.4256,1.4374 C8.2486,1.1684 9.1176,0.9994 10.0006,0.9994 C10.8826,0.9994 11.7526,1.1684 12.5746,1.4374 M19.8726,5.1654 C19.8256,5.1124 18.6906,3.8604 16.9166,2.5924 C15.8696,1.8444 14.8166,1.2494 13.7866,0.8204 C12.4816,0.2764 11.2076,0.0004 10.0006,0.0004 C8.7936,0.0004 7.5186,0.2764 6.2136,0.8204 C5.1836,1.2494 4.1306,1.8454 3.0846,2.5924 C1.3096,3.8604 0.1746,5.1134 0.1286,5.1654 C-0.0424,5.3554 -0.0424,5.6434 0.1286,5.8344 C0.1746,5.8864 1.3096,7.1384 3.0846,8.4064 C4.1306,9.1544 5.1836,9.7504 6.2136,10.1784 C7.5186,10.7224 8.7936,10.9994 10.0006,10.9994 C11.2076,10.9994 12.4816,10.7224 13.7866,10.1784 C14.8166,9.7504 15.8696,9.1534 16.9166,8.4064 C18.6906,7.1384 19.8256,5.8854 19.8726,5.8344 C20.0436,5.6434 20.0436,5.3554 19.8726,5.1654" id="Fill-1" fill="#000000" mask="url(#mask-4)"></path>
            </g>
        </g>
    </g>
</svg>