<?xml version="1.0" encoding="UTF-8"?>
<svg width="25px" height="25px" viewBox="0 0 25 25" version="1.1" xmlns="http://www.w3.org/2000/svg" xmlns:xlink="http://www.w3.org/1999/xlink">
    <!-- Generator: Sketch 52.6 (67491) - http://www.bohemiancoding.com/sketch -->
    <title>survey</title>
    <desc>Created with Sketch.</desc>
    <g id="survey" stroke="none" stroke-width="1" fill="none" fill-rule="evenodd">
        <g id="Group-17" transform="translate(4.000000, 3.000000)" fill="#000000">
            <path d="M15.5,20 L1.5,20 C0.673,20 0,19.327 0,18.5 L0,4.5 C0,3.673 0.673,3 1.5,3 L2.5,3 C2.775,3 3,3.224 3,3.5 C3,3.776 2.775,4 2.5,4 L1.5,4 C1.225,4 1,4.224 1,4.5 L1,18.5 C1,18.776 1.225,19 1.5,19 L15.5,19 C15.775,19 16,18.776 16,18.5 L16,4.5 C16,4.224 15.775,4 15.5,4 L14.5,4 C14.225,4 14,3.776 14,3.5 C14,3.224 14.225,3 14.5,3 L15.5,3 C16.327,3 17,3.673 17,4.5 L17,18.5 C17,19.327 16.327,20 15.5,20" id="Fill-1"></path>
            <path d="M5.0605,4 L11.9395,4 C11.8435,3.644 11.6325,3.383 11.3015,3.21 C10.9135,3.007 10.5015,3 10.4975,3 C10.2205,3 9.9995,2.776 9.9995,2.5 C9.9995,1.673 9.3275,1 8.4995,1 C7.6725,1 6.9995,1.673 6.9995,2.5 C6.9995,2.776 6.7755,3 6.4995,3 C6.4985,3 6.0865,3.007 5.6985,3.21 C5.3675,3.383 5.1565,3.643 5.0605,4 Z M12.5005,5 L12.4995,5 L4.4995,5 C4.2245,5 3.9995,4.776 3.9995,4.5 C3.9995,3.495 4.4535,2.714 5.2755,2.303 C5.5505,2.165 5.8235,2.09 6.0395,2.049 C6.2525,0.885 7.2755,0 8.4985,0 C9.7225,0 10.7455,0.885 10.9575,2.049 C11.1755,2.09 11.4475,2.165 11.7225,2.303 C12.5385,2.711 12.9905,3.481 12.9975,4.473 C12.9985,4.482 12.9985,4.491 12.9985,4.5 C12.9985,4.776 12.7755,5 12.4985,5 L12.5005,5 Z" id="Fill-3"></path>
            <path d="M8.5,3 C8.368,3 8.238,2.947 8.146,2.853 C8.055,2.759 8,2.631 8,2.5 C8,2.369 8.053,2.239 8.146,2.147 C8.24,2.054 8.369,2 8.5,2 C8.631,2 8.762,2.053 8.854,2.147 C8.945,2.24 9,2.369 9,2.5 C9,2.631 8.947,2.76 8.854,2.853 C8.76,2.946 8.631,3 8.5,3" id="Fill-5"></path>
            <path d="M13.5,8 L3.5,8 C3.225,8 3,7.776 3,7.5 C3,7.224 3.225,7 3.5,7 L13.5,7 C13.775,7 14,7.224 14,7.5 C14,7.776 13.775,8 13.5,8" id="Fill-7"></path>
            <path d="M11.5,11 L3.5,11 C3.225,11 3,10.776 3,10.5 C3,10.224 3.225,10 3.5,10 L11.5,10 C11.775,10 12,10.224 12,10.5 C12,10.776 11.775,11 11.5,11" id="Fill-9"></path>
            <path d="M13.5,13 L3.5,13 C3.225,13 3,12.776 3,12.5 C3,12.224 3.225,12 3.5,12 L13.5,12 C13.775,12 14,12.224 14,12.5 C14,12.776 13.775,13 13.5,13" id="Fill-11"></path>
            <path d="M13.5,15 L3.5,15 C3.225,15 3,14.776 3,14.5 C3,14.224 3.225,14 3.5,14 L13.5,14 C13.775,14 14,14.224 14,14.5 C14,14.776 13.775,15 13.5,15" id="Fill-13"></path>
            <path d="M8.5,17 L3.5,17 C3.225,17 3,16.776 3,16.5 C3,16.224 3.225,16 3.5,16 L8.5,16 C8.775,16 9,16.224 9,16.5 C9,16.776 8.775,17 8.5,17" id="Fill-15"></path>
        </g>
    </g>
</svg>