<?xml version="1.0" encoding="UTF-8"?>
<svg width="25px" height="25px" viewBox="0 0 25 25" version="1.1" xmlns="http://www.w3.org/2000/svg" xmlns:xlink="http://www.w3.org/1999/xlink">
    <!-- Generator: Sketch 52.6 (67491) - http://www.bohemiancoding.com/sketch -->
    <title>task analysis</title>
    <desc>Created with Sketch.</desc>
    <g id="task-analysis" stroke="none" stroke-width="1" fill="none" fill-rule="evenodd">
        <path d="M17.6666667,21.6666667 L21.6666667,21.6666667 L21.6666667,17.6666667 L17.6666667,17.6666667 L17.6666667,21.6666667 Z M4.33333333,21.6666667 L8.33333333,21.6666667 L8.33333333,17.6666667 L4.33333333,17.6666667 L4.33333333,21.6666667 Z M11,8.33333333 L15,8.33333333 L15,4.33333333 L11,4.33333333 L11,8.33333333 Z M13.6666667,12.3333333 L13.6666667,9.66666667 L15.6666667,9.66666667 C16.0333333,9.66666667 16.3333333,9.368 16.3333333,9 L16.3333333,3.66666667 C16.3333333,3.29866667 16.0333333,3 15.6666667,3 L10.3333333,3 C9.96666667,3 9.66666667,3.29866667 9.66666667,3.66666667 L9.66666667,9 C9.66666667,9.368 9.96666667,9.66666667 10.3333333,9.66666667 L12.3333333,9.66666667 L12.3333333,12.3333333 L7,12.3333333 C6.11111111,12.3333333 5.66666667,12.7780889 5.66666667,13.6676 L5.66666667,16.3333333 L3.66666667,16.3333333 C3.3,16.3333333 3,16.632 3,17 L3,22.3333333 C3,22.7013333 3.3,23 3.66666667,23 L9,23 C9.36666667,23 9.66666667,22.7013333 9.66666667,22.3333333 L9.66666667,17 C9.66666667,16.632 9.36666667,16.3333333 9,16.3333333 L7,16.3333333 L7,13.6666667 L19,13.6666667 L19,16.3333333 L17,16.3333333 C16.6333333,16.3333333 16.3333333,16.632 16.3333333,17 L16.3333333,22.3333333 C16.3333333,22.7013333 16.6333333,23 17,23 L22.3333333,23 C22.7,23 23,22.7013333 23,22.3333333 L23,17 C23,16.632 22.7,16.3333333 22.3333333,16.3333333 L20.3333333,16.3333333 L20.3333333,13.6666667 C20.3333333,12.7777778 19.8888889,12.3337333 19,12.3345333 L13.6666667,12.3333333 Z" id="Fill-1" fill="#000000"></path>
    </g>
</svg>